<svg width="396" height="71" viewBox="0 0 396 71" fill="none" xmlns="http://www.w3.org/2000/svg">
<path d="M40.8 44.5L55.9 0.0999939H81.2L55.1 70.1H26.5L0.4 0.0999939H25.7L40.8 44.5ZM152.701 -4.76837e-06V17.2H112.801V26.7H148.501V41.9H112.801V52.9H152.601V70H88.3008V-4.76837e-06H152.701ZM211.305 36.8L211.205 0.0999939H235.505V70.1H212.605L187.405 33.2V70.1H163.105V0.0999939H186.105L211.305 36.8ZM295.478 40.6V0.0999939H319.978V41C319.978 60.3 307.078 71 283.478 71C259.678 71 246.778 60.3 246.778 41V0.0999939H271.278V40.6C271.278 48.7 275.478 53.2 283.478 53.2C291.378 53.2 295.478 48.7 295.478 40.6ZM395.67 -4.76837e-06V17.2H355.77V26.7H391.47V41.9H355.77V52.9H395.57V70H331.27V-4.76837e-06H395.67Z" fill="#224093"/>
</svg>
